<?xml version="1.0" standalone="no"?>
<!DOCTYPE svg PUBLIC "-//W3C//DTD SVG 20010904//EN"
 "http://www.w3.org/TR/2001/REC-SVG-20010904/DTD/svg10.dtd">
<svg version="1.0" xmlns="http://www.w3.org/2000/svg"
 width="260.000000pt" height="260.000000pt" viewBox="0 0 260.000000 260.000000"
 preserveAspectRatio="xMidYMid meet">
<metadata>
Created by potrace 1.14, written by Peter Selinger 2001-2017
</metadata>
<g transform="translate(0.000000,260.000000) scale(0.100000,-0.100000)"
fill="#000000" stroke="none">
<path d="M132 2589 c-46 -13 -109 -80 -122 -128 -7 -27 -9 -395 -8 -1178 3
-1132 3 -1138 24 -1178 11 -22 40 -53 63 -70 l43 -30 1161 0 c1159 0 1162 0
1202 21 22 11 54 40 70 63 l30 43 0 1161 c0 1159 0 1162 -21 1202 -11 22 -40
54 -63 70 l-43 30 -1151 2 c-709 1 -1165 -2 -1185 -8z m1561 -443 c122 -31
253 -98 284 -145 31 -46 32 -127 2 -165 -26 -33 -69 -56 -105 -56 -14 0 -59
18 -99 40 -185 102 -454 108 -612 14 -76 -46 -98 -67 -145 -138 -60 -93 -89
-198 -95 -346 -14 -329 94 -537 322 -622 52 -20 80 -23 205 -23 163 0 197 8
333 78 65 33 85 39 119 34 71 -10 119 -82 104 -160 -20 -109 -264 -219 -516
-234 -542 -30 -900 318 -900 877 0 465 251 792 663 865 123 22 316 13 440 -19z"/>
</g>
</svg>
