<svg width="309" height="79" viewBox="0 0 309 79" fill="none" xmlns="http://www.w3.org/2000/svg">
<path d="M4.6181 21.8071L10.2749 21.521L10.9295 34.4645L27.8039 33.611L27.1493 20.6676L32.8061 20.3815L34.5032 53.9386L28.8465 54.2247L28.0682 38.8364L11.1938 39.6898L11.972 55.0781L6.31525 55.3642L4.6181 21.8071Z" fill="black"/>
<path d="M43.4746 36.6563C43.3861 34.1619 43.7361 31.844 44.5247 29.7027C45.3121 27.5294 46.4622 25.6475 47.9747 24.0568C49.5181 22.4331 51.3298 21.1521 53.4099 20.2137C55.4899 19.2754 57.7771 18.762 60.2716 18.6735C62.766 18.585 65.0839 18.935 67.2252 19.7236C69.3985 20.5111 71.2964 21.6605 72.919 23.1719C74.5725 24.6502 75.8689 26.4454 76.8084 28.5574C77.7467 30.6375 78.2601 32.9247 78.3486 35.4191C78.4371 37.9136 78.0877 40.2474 77.3002 42.4207C76.5116 44.562 75.3622 46.4599 73.8519 48.1145C72.3405 49.7371 70.5293 51.0342 68.4184 52.0056C66.3384 52.9439 64.0352 53.4579 61.5088 53.5476C58.9824 53.6372 56.6485 53.2877 54.5072 52.4991C52.3648 51.6786 50.4822 50.5126 48.8596 49.0012C47.2359 47.4578 45.9549 45.646 45.0165 43.566C44.077 41.454 43.5631 39.1507 43.4746 36.6563ZM49.4708 36.4436C49.5525 38.7461 50.1054 40.7918 51.1294 42.5806C52.1843 44.3363 53.5934 45.6952 55.3566 46.6573C57.1198 47.6194 59.1048 48.0613 61.3114 47.9831C63.55 47.9036 65.4986 47.3222 67.1572 46.2387C68.8478 45.1541 70.141 43.6993 71.0369 41.8744C71.9636 40.0164 72.3861 37.9361 72.3044 35.6335C72.2228 33.331 71.6704 31.3013 70.6475 29.5445C69.6235 27.7556 68.2298 26.3802 66.4666 25.4181C64.7354 24.4549 62.7345 24.0135 60.4639 24.0941C58.2573 24.1724 56.3087 24.7538 54.618 25.8384C52.9274 26.9231 51.6188 28.3944 50.6921 30.2524C49.7962 32.0773 49.3891 34.141 49.4708 36.4436Z" fill="black"/>
<path d="M93.439 31.3446L91.5342 51.8337L85.6794 51.9479L89.5984 16.5847L103.816 39.1117L117.193 16.0465L122.488 51.2299L116.633 51.3441L113.931 30.9449L103.999 48.47L93.439 31.3446Z" fill="black"/>
<path d="M130.039 17.5474L150.486 17.435L150.514 22.4269L135.634 22.5087L135.679 30.6686L149.599 30.5921L149.625 35.488L135.706 35.5645L135.764 46.1243L150.643 46.0425L150.671 51.0345L130.223 51.1469L130.039 17.5474Z" fill="black"/>
<path d="M163.799 34.257C163.782 36.625 164.294 38.7087 165.337 40.5084C166.38 42.308 167.762 43.7101 169.483 44.7146C171.236 45.6874 173.136 46.1812 175.184 46.1961C177.552 46.2133 179.603 45.7802 181.338 44.8968C183.105 43.9816 184.569 42.8402 185.731 41.4726L185.682 48.2405C184.297 49.3824 182.771 50.2514 181.103 50.8472C179.466 51.4434 177.416 51.7325 174.952 51.7146C172.488 51.6966 170.203 51.264 168.097 50.4167C165.992 49.5374 164.145 48.3239 162.556 46.7763C160.999 45.229 159.78 43.396 158.9 41.2776C158.051 39.1274 157.636 36.7723 157.655 34.2124C157.674 31.6524 158.123 29.3196 159.002 27.214C159.913 25.0765 161.159 23.2455 162.738 21.721C164.349 20.1966 166.214 19.0262 168.332 18.2095C170.45 17.3609 172.741 16.9456 175.205 16.9635C177.669 16.9814 179.714 17.3003 181.342 17.9201C183.002 18.5402 184.515 19.4312 185.883 20.5932L185.833 27.361C184.692 25.9767 183.244 24.8301 181.49 23.9214C179.769 22.9808 177.725 22.5019 175.357 22.4847C173.309 22.4698 171.401 22.952 169.634 23.9312C167.899 24.8786 166.497 26.2444 165.428 28.0287C164.359 29.781 163.816 31.8571 163.799 34.257Z" fill="black"/>
<path d="M193.667 34.5443C193.722 32.0489 194.205 29.755 195.115 27.6625C196.026 25.538 197.282 23.7252 198.883 22.224C200.517 20.6916 202.4 19.5167 204.53 18.6993C206.661 17.882 208.974 17.5007 211.469 17.5556C213.964 17.6105 216.258 18.093 218.351 19.0032C220.475 19.9141 222.304 21.1707 223.837 22.7727C225.403 24.3436 226.594 26.2102 227.411 28.3727C228.228 30.5032 228.61 32.8161 228.555 35.3115C228.5 37.8069 228.017 40.1168 227.106 42.2413C226.196 44.3338 224.939 46.1626 223.337 47.7278C221.734 49.2609 219.852 50.4518 217.689 51.3005C215.558 52.1178 213.229 52.4987 210.702 52.4432C208.174 52.3876 205.864 51.9047 203.772 50.9945C201.68 50.0522 199.868 48.7801 198.335 47.178C196.802 45.5439 195.627 43.6616 194.81 41.5311C193.993 39.3687 193.612 37.0397 193.667 34.5443ZM199.666 34.6762C199.615 36.9797 200.05 39.0537 200.969 40.8984C201.922 42.7118 203.25 44.1493 204.955 45.2111C206.66 46.2728 208.617 46.828 210.824 46.8765C213.064 46.9257 215.042 46.4571 216.761 45.4707C218.511 44.4849 219.885 43.1068 220.884 41.3363C221.916 39.5346 222.458 37.482 222.508 35.1785C222.559 32.8751 222.124 30.817 221.204 29.0044C220.284 27.1597 218.972 25.7065 217.267 24.6447C215.593 23.5837 213.621 23.0282 211.35 22.9783C209.142 22.9297 207.163 23.3983 205.413 24.3841C203.663 25.3699 202.272 26.7636 201.24 28.5654C200.241 30.3358 199.716 32.3728 199.666 34.6762Z" fill="black"/>
<path d="M235.717 35.5855C235.81 33.0912 236.329 30.8051 237.272 28.727C238.215 26.617 239.5 24.824 241.124 23.348C242.782 21.8413 244.683 20.6959 246.826 19.9118C248.969 19.1278 251.287 18.7827 253.781 18.8765C256.276 18.9703 258.562 19.4886 260.64 20.4314C262.75 21.3753 264.559 22.6602 266.067 24.286C267.608 25.8811 268.77 27.7661 269.553 29.941C270.337 32.084 270.682 34.4026 270.588 36.8968C270.494 39.3911 269.975 41.6932 269.031 43.8032C268.089 45.8813 266.804 47.6903 265.177 49.2302C263.551 50.7382 261.65 51.8995 259.474 52.7143C257.331 53.4984 254.996 53.8429 252.47 53.7479C249.944 53.6529 247.642 53.134 245.564 52.1912C243.487 51.2165 241.694 49.9162 240.186 48.2904C238.68 46.6326 237.534 44.7322 236.75 42.5892C235.967 40.4143 235.623 38.0797 235.717 35.5855ZM241.712 35.8109C241.626 38.1133 242.028 40.1939 242.919 42.0527C243.843 43.8807 245.149 45.3388 246.837 46.427C248.525 47.5152 250.473 48.1008 252.679 48.1838C254.918 48.268 256.903 47.8303 258.637 46.8708C260.402 45.9124 261.798 44.5559 262.825 42.8013C263.885 41.0158 264.458 38.9719 264.544 36.6696C264.631 34.3672 264.228 32.3026 263.336 30.4758C262.445 28.617 261.156 27.1435 259.468 26.0553C257.811 24.9683 255.848 24.3821 253.578 24.2967C251.371 24.2137 249.385 24.6514 247.62 25.6097C245.855 26.5681 244.442 27.94 243.382 29.7254C242.356 31.48 241.799 33.5086 241.712 35.8109Z" fill="black"/>
<path d="M281.552 20.6612L287.352 20.9608L286.632 34.9102L299.816 21.6044L306.622 21.9559L291.669 36.9487L305.609 55.5483L298.658 55.1894L286.426 38.8889L285.619 54.5161L279.819 54.2165L281.552 20.6612Z" fill="black"/>
<path d="M97.1422 59.4H101.732C103.34 59.4 104.558 59.784 105.386 60.552C106.226 61.32 106.646 62.31 106.646 63.522C106.646 64.386 106.43 65.148 105.998 65.808C105.578 66.456 104.954 66.936 104.126 67.248L107.402 72H103.82L101.12 67.644H100.184V72H97.1422V59.4ZM101.516 61.992H100.184V65.268H101.516C102.128 65.268 102.608 65.124 102.956 64.836C103.304 64.548 103.478 64.146 103.478 63.63C103.478 63.102 103.304 62.7 102.956 62.424C102.608 62.136 102.128 61.992 101.516 61.992ZM115.996 59.4H124.366V61.902H118.93V64.152H124.006V66.618H118.93V69.498H124.366V72H115.996V59.4ZM136.652 65.7C136.652 66.468 136.82 67.128 137.156 67.68C137.504 68.232 137.966 68.658 138.542 68.958C139.118 69.246 139.742 69.39 140.414 69.39C141.302 69.39 142.046 69.222 142.646 68.886C143.258 68.55 143.768 68.16 144.176 67.716V71.028C143.672 71.412 143.12 71.718 142.52 71.946C141.92 72.174 141.158 72.288 140.234 72.288C138.89 72.288 137.696 72.012 136.652 71.46C135.608 70.908 134.792 70.14 134.204 69.156C133.616 68.16 133.322 67.008 133.322 65.7C133.322 64.392 133.616 63.246 134.204 62.262C134.792 61.266 135.608 60.492 136.652 59.94C137.696 59.388 138.89 59.112 140.234 59.112C141.158 59.112 141.92 59.226 142.52 59.454C143.12 59.682 143.672 59.988 144.176 60.372V63.684C143.768 63.228 143.258 62.838 142.646 62.514C142.046 62.178 141.302 62.01 140.414 62.01C139.742 62.01 139.118 62.16 138.542 62.46C137.966 62.748 137.504 63.168 137.156 63.72C136.82 64.26 136.652 64.92 136.652 65.7ZM153.846 59.4H156.942V72H153.846V59.4ZM166.811 59.4H171.185C172.793 59.4 174.011 59.766 174.839 60.498C175.667 61.23 176.081 62.238 176.081 63.522C176.081 64.794 175.667 65.802 174.839 66.546C174.011 67.278 172.793 67.644 171.185 67.644H169.853V72H166.811V59.4ZM171.185 61.902H169.853V65.124H171.185C171.797 65.124 172.277 64.986 172.625 64.71C172.973 64.434 173.147 64.038 173.147 63.522C173.147 62.994 172.973 62.592 172.625 62.316C172.277 62.04 171.797 61.902 171.185 61.902ZM185.226 59.4H193.596V61.902H188.16V64.152H193.236V66.618H188.16V69.498H193.596V72H185.226V59.4ZM204.658 67.572C205.042 68.256 205.492 68.802 206.008 69.21C206.536 69.606 207.118 69.804 207.754 69.804C208.21 69.804 208.576 69.696 208.852 69.48C209.14 69.252 209.284 68.946 209.284 68.562C209.284 68.25 209.2 67.992 209.032 67.788C208.864 67.584 208.594 67.392 208.222 67.212C207.862 67.032 207.376 66.828 206.764 66.6C206.452 66.48 206.104 66.324 205.72 66.132C205.336 65.94 204.964 65.694 204.604 65.394C204.256 65.094 203.968 64.728 203.74 64.296C203.512 63.852 203.398 63.324 203.398 62.712C203.398 61.956 203.59 61.314 203.974 60.786C204.37 60.246 204.898 59.832 205.558 59.544C206.23 59.256 206.974 59.112 207.79 59.112C208.642 59.112 209.374 59.25 209.986 59.526C210.598 59.802 211.108 60.15 211.516 60.57C211.924 60.99 212.236 61.416 212.452 61.848L210.13 63.144C209.854 62.688 209.524 62.328 209.14 62.064C208.756 61.788 208.318 61.65 207.826 61.65C207.394 61.65 207.064 61.746 206.836 61.938C206.62 62.118 206.512 62.346 206.512 62.622C206.512 63.054 206.752 63.408 207.232 63.684C207.724 63.948 208.408 64.236 209.284 64.548C209.872 64.752 210.406 65.028 210.886 65.376C211.378 65.712 211.768 66.132 212.056 66.636C212.356 67.128 212.506 67.722 212.506 68.418C212.506 69.27 212.284 69.996 211.84 70.596C211.396 71.184 210.814 71.634 210.094 71.946C209.386 72.246 208.636 72.396 207.844 72.396C207.028 72.396 206.266 72.252 205.558 71.964C204.862 71.664 204.25 71.268 203.722 70.776C203.206 70.272 202.81 69.714 202.534 69.102L204.658 67.572Z" fill="#A86705"/>
</svg>
