<svg width="309" height="112" viewBox="0 0 309 112" fill="none" xmlns="http://www.w3.org/2000/svg">
<path d="M4.6181 21.8071L10.2749 21.521L10.9295 34.4645L27.8039 33.611L27.1493 20.6676L32.8061 20.3815L34.5032 53.9386L28.8465 54.2247L28.0682 38.8364L11.1938 39.6898L11.972 55.0781L6.31525 55.3642L4.6181 21.8071Z" fill="black"/>
<path d="M43.4746 36.6563C43.3861 34.1619 43.7361 31.844 44.5247 29.7027C45.3121 27.5294 46.4622 25.6475 47.9747 24.0568C49.5181 22.4331 51.3298 21.1521 53.4099 20.2137C55.4899 19.2754 57.7771 18.762 60.2716 18.6735C62.766 18.585 65.0839 18.935 67.2252 19.7236C69.3985 20.5111 71.2964 21.6605 72.919 23.1719C74.5725 24.6502 75.8689 26.4454 76.8084 28.5574C77.7467 30.6375 78.2601 32.9247 78.3486 35.4191C78.4371 37.9136 78.0877 40.2474 77.3002 42.4207C76.5116 44.562 75.3622 46.4599 73.8519 48.1145C72.3405 49.7371 70.5293 51.0342 68.4184 52.0056C66.3384 52.9439 64.0352 53.4579 61.5088 53.5476C58.9824 53.6372 56.6485 53.2877 54.5072 52.4991C52.3648 51.6786 50.4822 50.5126 48.8596 49.0012C47.2359 47.4578 45.9549 45.646 45.0165 43.566C44.077 41.454 43.5631 39.1507 43.4746 36.6563ZM49.4708 36.4436C49.5525 38.7461 50.1054 40.7918 51.1294 42.5806C52.1843 44.3363 53.5934 45.6952 55.3566 46.6573C57.1198 47.6194 59.1048 48.0613 61.3114 47.9831C63.55 47.9036 65.4986 47.3222 67.1572 46.2387C68.8478 45.1541 70.141 43.6993 71.0369 41.8744C71.9636 40.0164 72.3861 37.9361 72.3044 35.6335C72.2228 33.331 71.6704 31.3013 70.6475 29.5445C69.6235 27.7556 68.2298 26.3802 66.4666 25.4181C64.7354 24.4549 62.7345 24.0135 60.4639 24.0941C58.2573 24.1724 56.3087 24.7538 54.618 25.8384C52.9274 26.9231 51.6188 28.3944 50.6921 30.2524C49.7962 32.0773 49.3891 34.141 49.4708 36.4436Z" fill="black"/>
<path d="M93.439 31.3446L91.5342 51.8337L85.6794 51.9479L89.5984 16.5847L103.816 39.1117L117.193 16.0465L122.488 51.2299L116.633 51.3441L113.931 30.9449L103.999 48.47L93.439 31.3446Z" fill="black"/>
<path d="M130.039 17.5474L150.486 17.435L150.514 22.4269L135.634 22.5087L135.679 30.6686L149.599 30.5921L149.625 35.488L135.706 35.5645L135.764 46.1243L150.643 46.0425L150.671 51.0345L130.223 51.1469L130.039 17.5474Z" fill="black"/>
<path d="M163.799 34.257C163.782 36.625 164.294 38.7087 165.337 40.5084C166.38 42.308 167.762 43.7101 169.483 44.7146C171.236 45.6874 173.136 46.1812 175.184 46.1961C177.552 46.2133 179.603 45.7802 181.338 44.8968C183.105 43.9816 184.569 42.8402 185.731 41.4726L185.682 48.2405C184.297 49.3824 182.771 50.2514 181.103 50.8472C179.466 51.4434 177.416 51.7325 174.952 51.7146C172.488 51.6966 170.203 51.264 168.097 50.4167C165.992 49.5374 164.145 48.3239 162.556 46.7763C160.999 45.229 159.78 43.396 158.9 41.2776C158.051 39.1274 157.636 36.7723 157.655 34.2124C157.674 31.6524 158.123 29.3196 159.002 27.214C159.913 25.0765 161.159 23.2455 162.738 21.721C164.349 20.1966 166.214 19.0262 168.332 18.2095C170.45 17.3609 172.741 16.9456 175.205 16.9635C177.669 16.9814 179.714 17.3003 181.342 17.9201C183.002 18.5402 184.515 19.4312 185.883 20.5932L185.833 27.361C184.692 25.9767 183.244 24.8301 181.49 23.9214C179.769 22.9808 177.725 22.5019 175.357 22.4847C173.309 22.4698 171.401 22.952 169.634 23.9312C167.899 24.8786 166.497 26.2444 165.428 28.0287C164.359 29.781 163.816 31.8571 163.799 34.257Z" fill="black"/>
<path d="M193.667 34.5443C193.722 32.0489 194.205 29.755 195.115 27.6625C196.026 25.538 197.282 23.7252 198.883 22.224C200.517 20.6916 202.4 19.5167 204.53 18.6993C206.661 17.882 208.974 17.5007 211.469 17.5556C213.964 17.6105 216.258 18.093 218.351 19.0032C220.475 19.9141 222.304 21.1707 223.837 22.7727C225.403 24.3436 226.594 26.2102 227.411 28.3727C228.228 30.5032 228.61 32.8161 228.555 35.3115C228.5 37.8069 228.017 40.1168 227.106 42.2413C226.196 44.3338 224.939 46.1626 223.337 47.7278C221.734 49.2609 219.852 50.4518 217.689 51.3005C215.558 52.1178 213.229 52.4987 210.702 52.4432C208.174 52.3876 205.864 51.9047 203.772 50.9945C201.68 50.0522 199.868 48.7801 198.335 47.178C196.802 45.5439 195.627 43.6616 194.81 41.5311C193.993 39.3687 193.612 37.0397 193.667 34.5443ZM199.666 34.6762C199.615 36.9797 200.05 39.0537 200.969 40.8984C201.922 42.7118 203.25 44.1493 204.955 45.2111C206.66 46.2728 208.617 46.828 210.824 46.8765C213.064 46.9257 215.042 46.4571 216.761 45.4707C218.511 44.4849 219.885 43.1068 220.884 41.3363C221.916 39.5346 222.458 37.482 222.508 35.1785C222.559 32.8751 222.124 30.817 221.204 29.0044C220.284 27.1597 218.972 25.7065 217.267 24.6447C215.593 23.5837 213.621 23.0282 211.35 22.9783C209.142 22.9297 207.163 23.3983 205.413 24.3841C203.663 25.3699 202.272 26.7636 201.24 28.5654C200.241 30.3358 199.716 32.3728 199.666 34.6762Z" fill="black"/>
<path d="M235.717 35.5855C235.81 33.0912 236.329 30.8051 237.272 28.727C238.215 26.617 239.5 24.824 241.124 23.348C242.782 21.8413 244.683 20.6959 246.826 19.9118C248.969 19.1278 251.287 18.7827 253.781 18.8765C256.276 18.9703 258.562 19.4886 260.64 20.4314C262.75 21.3753 264.559 22.6602 266.067 24.286C267.608 25.8811 268.77 27.7661 269.553 29.941C270.337 32.084 270.682 34.4026 270.588 36.8968C270.494 39.3911 269.975 41.6932 269.031 43.8032C268.089 45.8813 266.804 47.6903 265.177 49.2302C263.551 50.7382 261.65 51.8995 259.474 52.7143C257.331 53.4984 254.996 53.8429 252.47 53.7479C249.944 53.6529 247.642 53.134 245.564 52.1912C243.487 51.2165 241.694 49.9162 240.186 48.2904C238.68 46.6326 237.534 44.7322 236.75 42.5892C235.967 40.4143 235.623 38.0797 235.717 35.5855ZM241.712 35.8109C241.626 38.1133 242.028 40.1939 242.919 42.0527C243.843 43.8807 245.149 45.3388 246.837 46.427C248.525 47.5152 250.473 48.1008 252.679 48.1838C254.918 48.268 256.903 47.8303 258.637 46.8708C260.402 45.9124 261.798 44.5559 262.825 42.8013C263.885 41.0158 264.458 38.9719 264.544 36.6696C264.631 34.3672 264.228 32.3026 263.336 30.4758C262.445 28.617 261.156 27.1435 259.468 26.0553C257.811 24.9683 255.848 24.3821 253.578 24.2967C251.371 24.2137 249.385 24.6514 247.62 25.6097C245.855 26.5681 244.442 27.94 243.382 29.7254C242.356 31.48 241.799 33.5086 241.712 35.8109Z" fill="black"/>
<path d="M281.552 20.6612L287.352 20.9608L286.632 34.9102L299.816 21.6044L306.622 21.9559L291.669 36.9487L305.609 55.5483L298.658 55.1894L286.426 38.8889L285.619 54.5161L279.819 54.2165L281.552 20.6612Z" fill="black"/>
<path d="M103.288 71.376C103.576 71.088 103.792 70.872 104.008 70.584C105.52 69.144 106.96 67.56 108.76 66.48C109.264 66.12 109.768 65.76 110.416 65.616C111.208 65.472 112 65.904 112.216 66.696C112.432 67.344 112.072 68.064 111.424 68.136C110.488 68.136 109.912 68.784 109.264 69.288C106.816 71.448 104.584 73.752 102.64 76.344C100.696 79.08 98.8959 81.816 97.8159 84.984C97.5999 85.488 97.3839 86.064 97.0959 86.424C96.5199 87.432 95.5839 87.792 94.6479 87.432C93.6399 87.072 93.0639 86.208 93.1359 85.056C93.2079 84.336 93.3519 83.688 93.4959 83.04C93.8559 81.456 94.3599 80.016 95.0079 78.576C96.2319 75.624 97.5279 72.672 98.8239 69.648C99.6159 68.064 100.48 66.552 101.416 65.04C101.632 64.68 101.848 64.392 102.208 64.104C103.216 63.384 104.44 63.888 104.728 65.04C104.872 65.616 104.8 66.12 104.656 66.696C104.224 67.92 103.864 69.144 103.432 70.368C103.36 70.656 103.216 70.944 103.288 71.376Z" fill="#A86705"/>
<path d="M109.081 81.6C109.153 80.664 109.225 79.584 109.513 78.504C110.593 74.184 112.681 70.368 115.921 67.344C116.785 66.48 117.721 65.76 118.801 65.184C119.593 64.824 120.385 64.608 121.177 64.68C122.905 64.896 123.985 66.264 123.913 67.92C123.841 68.64 123.697 69.36 123.409 70.08C122.113 72.96 120.169 75.408 117.505 77.064C116.929 77.424 116.425 77.712 115.849 77.856C115.345 78 115.057 78.288 114.913 78.792C114.409 80.16 113.977 81.528 113.689 82.896C113.689 83.184 113.617 83.4 113.617 83.688C113.617 83.976 113.761 84.048 114.049 83.976C114.409 83.904 114.697 83.688 114.985 83.472C115.705 82.896 116.497 82.248 117.289 81.672C117.505 81.528 117.649 81.384 117.865 81.312C118.225 81.096 118.585 81.096 118.873 81.456C119.233 81.744 119.233 82.104 119.089 82.464C119.017 82.824 118.801 83.112 118.513 83.328C117.505 84.192 116.569 85.128 115.489 85.92C114.913 86.424 114.265 86.784 113.473 86.928C111.961 87.216 110.737 86.712 109.945 85.344C109.369 84.408 109.081 83.112 109.081 81.6ZM116.497 75.12C116.569 75.12 116.641 75.048 116.713 75.048C118.729 73.392 120.385 71.448 121.249 69C121.393 68.64 121.753 68.136 121.321 67.848C120.961 67.704 120.673 68.208 120.457 68.496C118.801 70.368 117.649 72.528 116.497 74.76C116.425 74.832 116.353 74.976 116.497 75.12Z" fill="#A86705"/>
<path d="M138.682 63.744C138.106 64.032 137.674 64.536 137.314 65.04C136.09 66.552 135.01 68.136 134.002 69.792C130.834 74.544 128.818 79.8 127.666 85.416C127.594 85.704 127.522 86.064 127.522 86.352C127.522 86.928 127.882 87.216 128.458 87.072C128.818 86.928 129.178 86.712 129.538 86.496C130.762 85.776 131.842 84.84 132.994 83.904C133.57 83.472 134.146 83.04 134.722 82.608C134.866 82.464 135.082 82.32 135.298 82.248C135.73 82.032 136.09 82.104 136.45 82.464C136.738 82.824 136.738 83.184 136.522 83.616C136.378 83.976 136.09 84.264 135.802 84.552C134.29 85.848 132.85 87.144 131.338 88.44C130.906 88.8 130.402 89.16 129.97 89.448C127.162 91.032 124.066 89.736 123.202 86.568C122.914 85.416 122.986 84.192 123.058 82.968C123.274 80.16 124.138 77.424 125.218 74.76C126.442 71.808 127.954 69.072 129.754 66.552C130.978 64.752 132.418 63.24 134.146 61.872C135.082 61.08 136.234 60.432 137.458 60.216C138.97 59.856 140.122 60.36 140.914 61.584C141.49 62.376 141.778 63.24 141.778 64.176C141.778 67.344 141.202 70.224 139.258 72.816C138.754 73.536 138.25 73.68 137.746 73.464C137.242 73.176 137.17 72.6 137.602 71.808C138.61 69.792 139.042 67.704 139.114 65.544C139.186 64.896 139.114 64.32 138.682 63.744Z" fill="#A86705"/>
<path d="M140.266 83.4C140.266 82.968 140.338 82.536 140.482 82.104C141.562 78.36 142.786 74.688 144.658 71.304C145.162 70.368 145.666 69.432 146.314 68.64C146.674 68.208 147.034 67.848 147.538 67.56C148.186 67.2 148.834 67.2 149.482 67.632C150.13 68.064 150.346 68.712 150.202 69.504C150.13 69.792 150.058 70.008 149.914 70.296C148.402 74.256 147.178 78.288 145.954 82.392C145.594 83.616 145.234 84.912 144.37 85.92C144.226 86.064 144.082 86.28 143.938 86.424C142.93 87.36 141.634 87.144 140.914 85.992C140.554 85.416 140.266 84.336 140.266 83.4ZM151.57 58.488C152.434 58.488 153.226 59.424 153.01 60.432C152.794 61.584 152.362 62.592 151.57 63.456C150.994 64.032 150.346 64.176 149.77 63.888C149.194 63.672 148.834 63.024 148.906 62.304C148.978 61.152 149.338 60.144 150.058 59.208C150.418 58.776 150.85 58.56 151.57 58.488Z" fill="#A86705"/>
<path d="M161.827 74.112C162.115 73.968 162.259 73.608 162.403 73.392C164.131 70.8 165.859 68.208 167.803 65.76C168.739 64.536 169.819 63.456 171.115 62.52C171.475 62.304 171.835 62.016 172.267 61.8C173.851 61.008 175.363 61.656 175.867 63.384C176.155 64.32 176.299 65.328 176.299 66.336C176.299 68.928 175.795 71.376 174.859 73.68C173.275 77.64 171.043 81.096 167.875 83.976C167.155 84.624 166.435 85.272 165.643 85.776C163.267 87.288 160.747 87.72 158.083 86.784C157.723 86.64 157.579 86.784 157.435 87.072C157.219 87.576 157.003 88.152 156.715 88.728C156.067 90.24 155.419 91.824 154.771 93.336C152.899 97.44 151.459 101.616 150.235 105.936C149.947 107.016 149.587 108.024 149.227 109.032C149.155 109.248 149.083 109.536 148.939 109.752C148.507 110.688 147.715 111.12 146.851 110.976C145.987 110.832 145.411 110.184 145.267 109.176C145.195 107.88 145.339 106.656 145.555 105.36C147.211 95.352 150.379 85.776 154.843 76.704C156.283 73.752 157.795 70.872 159.523 68.064C160.315 66.84 161.107 65.544 162.115 64.392C162.331 64.104 162.691 63.744 163.051 63.528C164.131 63.024 165.139 63.744 165.067 64.896C165.067 65.256 164.923 65.616 164.707 65.976C163.699 68.208 162.691 70.44 161.683 72.744C161.395 73.248 161.323 73.68 161.827 74.112ZM159.091 83.832C160.243 84.12 161.611 83.832 162.691 83.04C163.411 82.536 163.987 81.96 164.563 81.24C167.155 78.216 169.315 74.832 170.899 71.16C171.619 69.648 172.195 68.136 172.555 66.48C172.699 65.904 172.843 65.256 172.771 64.536C172.339 64.608 172.123 64.824 171.835 65.04C170.755 65.904 169.891 66.912 169.027 67.992C165.355 72.672 162.187 77.712 159.379 82.968C159.235 83.256 159.019 83.472 159.091 83.832ZM161.035 75.552C160.963 75.48 160.963 75.48 160.891 75.408C160.027 76.056 159.811 77.064 159.379 78C159.451 78 159.523 78 159.523 78.072C160.027 77.208 160.531 76.416 161.035 75.552Z" fill="#A86705"/>
<path d="M176.721 81.6C176.793 80.664 176.865 79.584 177.153 78.504C178.233 74.184 180.321 70.368 183.561 67.344C184.425 66.48 185.361 65.76 186.441 65.184C187.233 64.824 188.025 64.608 188.817 64.68C190.545 64.896 191.625 66.264 191.553 67.92C191.481 68.64 191.337 69.36 191.049 70.08C189.753 72.96 187.809 75.408 185.145 77.064C184.569 77.424 184.065 77.712 183.489 77.856C182.985 78 182.697 78.288 182.553 78.792C182.049 80.16 181.617 81.528 181.329 82.896C181.329 83.184 181.257 83.4 181.257 83.688C181.257 83.976 181.401 84.048 181.689 83.976C182.049 83.904 182.337 83.688 182.625 83.472C183.345 82.896 184.137 82.248 184.929 81.672C185.145 81.528 185.289 81.384 185.505 81.312C185.865 81.096 186.225 81.096 186.513 81.456C186.873 81.744 186.873 82.104 186.729 82.464C186.657 82.824 186.441 83.112 186.153 83.328C185.145 84.192 184.209 85.128 183.129 85.92C182.553 86.424 181.905 86.784 181.113 86.928C179.601 87.216 178.377 86.712 177.585 85.344C177.009 84.408 176.721 83.112 176.721 81.6ZM184.137 75.12C184.209 75.12 184.281 75.048 184.353 75.048C186.369 73.392 188.025 71.448 188.889 69C189.033 68.64 189.393 68.136 188.961 67.848C188.601 67.704 188.313 68.208 188.097 68.496C186.441 70.368 185.289 72.528 184.137 74.76C184.065 74.832 183.993 74.976 184.137 75.12Z" fill="#A86705"/>
<path d="M201.824 79.44C201.536 82.032 200.816 84.552 199.376 86.856C198.296 88.8 196.64 90.096 194.48 90.6C191.384 91.392 188.432 89.52 187.928 86.496C187.784 85.704 187.856 84.84 188.144 83.976C188.648 82.32 189.44 80.88 190.736 79.584C191.672 78.504 192.752 77.568 193.904 76.704C194.48 76.344 194.984 75.984 195.488 75.696C196.424 75.264 196.424 75.264 196.352 74.256C196.352 73.32 196.352 72.384 196.28 71.448C196.208 69.576 196.64 67.704 197.432 65.976C198.512 63.672 200.96 62.16 203.408 62.304C204.488 62.376 205.352 62.808 206.072 63.672C206.432 64.104 206.648 64.608 206.576 65.184C206.576 65.688 206.288 66.12 205.856 66.264C205.424 66.48 205.064 66.336 204.704 66.048C204.632 65.976 204.56 65.904 204.56 65.832C204.128 65.184 203.552 64.896 202.688 65.184C201.824 65.4 201.248 65.904 200.96 66.768C200.6 67.992 200.6 69.216 200.816 70.44C201.032 72.096 201.392 73.68 201.608 75.336C201.824 76.704 201.968 78.072 201.824 79.44ZM196.496 77.424C196.208 77.496 196.136 77.568 196.064 77.568C194.264 78.72 192.752 80.16 191.528 81.888C191.024 82.536 190.808 83.256 190.592 83.976C190.52 84.264 190.52 84.552 190.52 84.84C190.736 86.208 191.816 86.712 193.112 85.992C193.688 85.632 194.264 85.2 194.624 84.624C196.064 82.392 196.496 80.016 196.496 77.424Z" fill="#A86705"/>
</svg>
